# xmcd
#
# Track frame offsets: 
#        150
#        13062
#        30162
#        48140
#        66917
#        83192
#        99125
#        116157
#        129855
#        142947
#        159537
#        177010
#        195427
#        212065
#        228605
#        243487
#
# Disc length: 3482 seconds
#
# Revision: 1
# Processed by: cddbd v1.5.2PL0 Copyright (c) Steve Scherf et al.
# Submitted via: ExactAudioCopyFreeDBPlugin 1.0
#
DISCID=c60d9810
DTITLE=Various Artist - Country Hits 2002
DYEAR=2002
DGENRE=Country
TTITLE0=Keith Urban - Where the Blacktop Ends
TTITLE1=Montgomery Gentry - She Couldn't Change Me
TTITLE2=Jamie O'Neal - There Is No Arizona
TTITLE3=Lonestar - I'm Already There
TTITLE4=Phil Vassar - Six Pack Summer
TTITLE5=Keith Urban - Without You
TTITLE6=Blake Shelton - Austin
TTITLE7=Jamie O'Neal - When I Think About Angels
TTITLE8=Aaron Tippin - Kiss This
TTITLE9=Trisha Yearwood - I Would've Loved You Anyway
TTITLE10=Phil Vassar - Just Another Day In Paradise
TTITLE11=Jessica Andrews - Who I Am
TTITLE12=Toby Keith - You Shouldn't Kiss Me Like This
TTITLE13=Sara Evans - Born To Fly
TTITLE14=Cyndi Thomson - What I Really Meant To Say
TTITLE15=Brooks and Dunn - Only In America
EXTD=
EXTT0=
EXTT1=
EXTT2=
EXTT3=
EXTT4=
EXTT5=
EXTT6=
EXTT7=
EXTT8=
EXTT9=
EXTT10=
EXTT11=
EXTT12=
EXTT13=
EXTT14=
EXTT15=
PLAYORDER=
